<svg width="74" height="19" viewBox="0 0 74 19" fill="none" xmlns="http://www.w3.org/2000/svg">
<path d="M28.4508 5.27999C29.5388 5.27999 30.5148 5.55999 31.3788 6.11999C32.2428 6.66399 32.9228 7.41599 33.4188 8.37599C33.9308 9.33599 34.1868 10.448 34.1868 11.712C34.1868 12.976 33.9308 14.096 33.4188 15.072C32.9228 16.048 32.2428 16.824 31.3788 17.4C30.5308 17.96 29.5708 18.24 28.4988 18.24C27.9068 18.24 27.3468 18.152 26.8188 17.976C26.3068 17.784 25.8348 17.536 25.4028 17.232C24.9868 16.912 24.6348 16.568 24.3468 16.2C24.0588 15.816 23.8508 15.44 23.7228 15.072L24.2508 14.736V17.136C24.2508 17.408 24.1628 17.64 23.9868 17.832C23.8108 18.024 23.5788 18.12 23.2908 18.12C23.0188 18.12 22.7868 18.032 22.5948 17.856C22.4188 17.664 22.3308 17.424 22.3308 17.136V1.22399C22.3308 0.95199 22.4188 0.71999 22.5948 0.527989C22.7868 0.33599 23.0188 0.23999 23.2908 0.23999C23.5788 0.23999 23.8108 0.33599 23.9868 0.527989C24.1628 0.71999 24.2508 0.95199 24.2508 1.22399V8.61599L23.8908 8.42399C24.0028 8.02399 24.1948 7.63999 24.4668 7.27199C24.7548 6.88799 25.0988 6.55199 25.4988 6.26399C25.9148 5.95999 26.3708 5.71999 26.8668 5.54399C27.3788 5.36799 27.9068 5.27999 28.4508 5.27999ZM28.2348 7.05599C27.4348 7.05599 26.7228 7.25599 26.0988 7.65599C25.4908 8.05599 25.0108 8.60799 24.6588 9.31199C24.3228 10.016 24.1548 10.816 24.1548 11.712C24.1548 12.608 24.3228 13.416 24.6588 14.136C25.0108 14.856 25.4908 15.424 26.0988 15.84C26.7228 16.256 27.4348 16.464 28.2348 16.464C29.0348 16.464 29.7388 16.256 30.3468 15.84C30.9548 15.424 31.4348 14.856 31.7868 14.136C32.1388 13.416 32.3148 12.608 32.3148 11.712C32.3148 10.816 32.1388 10.016 31.7868 9.31199C31.4348 8.60799 30.9548 8.05599 30.3468 7.65599C29.7388 7.25599 29.0348 7.05599 28.2348 7.05599Z" fill="#7828C8"/>
<path d="M13.8491 5.9279H19.4171C19.5451 5.9279 19.6491 5.9759 19.7291 6.0719C19.8251 6.1679 19.8731 6.2719 19.8731 6.3839C19.8731 6.5119 19.8251 6.6239 19.7291 6.7199C19.6491 6.7999 19.5451 6.8399 19.4171 6.8399H13.8491C13.7371 6.8399 13.6331 6.7919 13.5371 6.6959C13.4411 6.5999 13.3931 6.4959 13.3931 6.3839C13.3931 6.2559 13.4411 6.1519 13.5371 6.0719C13.6331 5.9759 13.7371 5.9279 13.8491 5.9279ZM16.2971 2.3999C16.4411 2.3999 16.5531 2.4479 16.6331 2.5439C16.7291 2.6399 16.7771 2.7519 16.7771 2.8799V15.3839C16.7771 15.9119 16.8411 16.3039 16.9691 16.5599C17.1131 16.7999 17.2891 16.9599 17.4971 17.0399C17.7051 17.1039 17.9051 17.1359 18.0971 17.1359C18.2091 17.1359 18.3051 17.1199 18.3851 17.0879C18.4651 17.0559 18.5611 17.0399 18.6731 17.0399C18.7851 17.0399 18.8811 17.0879 18.9611 17.1839C19.0411 17.2639 19.0811 17.3599 19.0811 17.4719C19.0811 17.6159 18.9851 17.7439 18.7931 17.8559C18.6171 17.9519 18.3931 17.9999 18.1211 17.9999C18.0251 17.9999 17.8491 17.9999 17.5931 17.9999C17.3531 17.9839 17.0891 17.9119 16.8011 17.7839C16.5291 17.6399 16.2971 17.3919 16.1051 17.0399C15.9131 16.6719 15.8171 16.1359 15.8171 15.4319V2.8799C15.8171 2.7519 15.8651 2.6399 15.9611 2.5439C16.0571 2.4479 16.1691 2.3999 16.2971 2.3999Z" fill="#FAFAFA"/>
<path d="M5.73612 0.360107C5.92812 0.360107 6.15212 0.376107 6.40812 0.408107C6.68012 0.440107 6.91212 0.504107 7.10412 0.600107C7.31212 0.696107 7.41612 0.840107 7.41612 1.03211C7.41612 1.14411 7.36812 1.25611 7.27212 1.36811C7.19212 1.46411 7.08812 1.51211 6.96012 1.51211C6.80012 1.51211 6.60812 1.46411 6.38412 1.36811C6.16012 1.27211 5.91212 1.22411 5.64012 1.22411C5.32012 1.22411 5.03212 1.29611 4.77612 1.44011C4.53612 1.58411 4.34412 1.80811 4.20012 2.11211C4.07212 2.40011 4.00812 2.77611 4.00812 3.24011V17.5201C4.00812 17.6481 3.96012 17.7601 3.86412 17.8561C3.76812 17.9521 3.65612 18.0001 3.52812 18.0001C3.38412 18.0001 3.26412 17.9521 3.16812 17.8561C3.08812 17.7601 3.04812 17.6481 3.04812 17.5201V3.24011C3.04812 2.24811 3.31212 1.52011 3.84012 1.05611C4.36812 0.592107 5.00012 0.360107 5.73612 0.360107ZM6.84012 6.16811C6.96812 6.16811 7.07212 6.21611 7.15212 6.31211C7.24812 6.39211 7.29612 6.49611 7.29612 6.62411C7.29612 6.75211 7.24812 6.86411 7.15212 6.96011C7.07212 7.04011 6.96812 7.08011 6.84012 7.08011H1.12812C1.01612 7.08011 0.912119 7.03211 0.816119 6.93611C0.720119 6.84011 0.672119 6.73611 0.672119 6.62411C0.672119 6.48011 0.720119 6.36811 0.816119 6.28811C0.912119 6.20811 1.01612 6.16811 1.12812 6.16811H6.84012ZM10.9681 17.5201C10.9681 17.6481 10.9201 17.7601 10.8241 17.8561C10.7281 17.9521 10.6161 18.0001 10.4881 18.0001C10.3441 18.0001 10.2241 17.9521 10.1281 17.8561C10.0481 17.7601 10.0081 17.6481 10.0081 17.5201V6.12011C10.0081 5.99211 10.0561 5.88011 10.1521 5.78411C10.2481 5.68811 10.3601 5.64011 10.4881 5.64011C10.6321 5.64011 10.7441 5.68811 10.8241 5.78411C10.9201 5.88011 10.9681 5.99211 10.9681 6.12011V17.5201ZM10.4881 4.00811C10.2321 4.00811 10.0241 3.93611 9.86412 3.79211C9.72012 3.64811 9.64812 3.46411 9.64812 3.24011V3.04811C9.64812 2.82411 9.72812 2.64011 9.88812 2.49611C10.0481 2.35211 10.2561 2.28011 10.5121 2.28011C10.7361 2.28011 10.9201 2.35211 11.0641 2.49611C11.2241 2.64011 11.3041 2.82411 11.3041 3.04811V3.24011C11.3041 3.46411 11.2241 3.64811 11.0641 3.79211C10.9201 3.93611 10.7281 4.00811 10.4881 4.00811Z" fill="#FAFAFA"/>
<path d="M64.088 16.032C63.944 15.824 63.88 15.608 63.896 15.384C63.912 15.144 64.048 14.936 64.304 14.76C64.464 14.648 64.648 14.6 64.856 14.616C65.08 14.632 65.28 14.736 65.456 14.928C65.904 15.456 66.416 15.88 66.992 16.2C67.568 16.504 68.272 16.656 69.104 16.656C69.488 16.64 69.872 16.576 70.256 16.464C70.64 16.352 70.96 16.16 71.216 15.888C71.488 15.6 71.624 15.224 71.624 14.76C71.624 14.312 71.488 13.96 71.216 13.704C70.944 13.432 70.592 13.216 70.16 13.056C69.728 12.88 69.256 12.728 68.744 12.6C68.216 12.456 67.696 12.296 67.184 12.12C66.672 11.928 66.208 11.696 65.792 11.424C65.392 11.136 65.064 10.784 64.808 10.368C64.568 9.93603 64.448 9.41603 64.448 8.80803C64.448 8.08803 64.64 7.46403 65.024 6.93603C65.424 6.40803 65.952 6.00003 66.608 5.71203C67.28 5.42403 68.008 5.28003 68.792 5.28003C69.24 5.28003 69.704 5.33603 70.184 5.44803C70.68 5.54403 71.16 5.72003 71.624 5.97603C72.088 6.21603 72.496 6.55203 72.848 6.98403C72.992 7.14403 73.072 7.34403 73.088 7.58403C73.104 7.82403 73 8.04003 72.776 8.23203C72.6 8.36003 72.4 8.41603 72.176 8.40003C71.968 8.38403 71.792 8.30403 71.648 8.16003C71.312 7.76003 70.888 7.45603 70.376 7.24803C69.88 7.02403 69.328 6.91203 68.72 6.91203C68.336 6.91203 67.96 6.96803 67.592 7.08003C67.224 7.19203 66.912 7.38403 66.656 7.65603C66.416 7.91203 66.296 8.27203 66.296 8.73603C66.312 9.16803 66.456 9.52003 66.728 9.79203C67 10.064 67.368 10.288 67.832 10.464C68.296 10.624 68.808 10.784 69.368 10.944C69.88 11.072 70.368 11.224 70.832 11.4C71.312 11.56 71.744 11.776 72.128 12.048C72.512 12.32 72.816 12.672 73.04 13.104C73.264 13.52 73.376 14.048 73.376 14.688C73.376 15.424 73.168 16.064 72.752 16.608C72.336 17.136 71.784 17.544 71.096 17.832C70.424 18.104 69.696 18.24 68.912 18.24C68.032 18.24 67.16 18.072 66.296 17.736C65.448 17.4 64.712 16.832 64.088 16.032Z" fill="#7828C8"/>
<path d="M52.928 18C52.64 18 52.408 17.904 52.232 17.712C52.056 17.52 51.968 17.288 51.968 17.016V1.19999C51.968 0.92799 52.056 0.70399 52.232 0.527989C52.408 0.33599 52.64 0.23999 52.928 0.23999C53.2 0.23999 53.424 0.33599 53.6 0.527989C53.792 0.70399 53.888 0.92799 53.888 1.19999V17.016C53.888 17.288 53.792 17.52 53.6 17.712C53.424 17.904 53.2 18 52.928 18ZM60.896 5.51999C61.152 5.51999 61.368 5.62399 61.544 5.83199C61.736 6.02399 61.832 6.22399 61.832 6.43199C61.832 6.70399 61.704 6.94399 61.448 7.15199L53.672 13.944L53.6 11.712L60.224 5.80799C60.416 5.61599 60.64 5.51999 60.896 5.51999ZM61.16 17.976C60.888 17.976 60.648 17.872 60.44 17.664L55.328 12.216L56.768 10.896L61.832 16.32C62.024 16.528 62.12 16.768 62.12 17.04C62.12 17.328 62.008 17.56 61.784 17.736C61.56 17.896 61.352 17.976 61.16 17.976Z" fill="#7828C8"/>
<path fill-rule="evenodd" clip-rule="evenodd" d="M46 8H40C39.4477 8 39 8.44772 39 9V15C39 15.5523 39.4477 16 40 16H46C46.5523 16 47 15.5523 47 15V9C47 8.44772 46.5523 8 46 8ZM40 6C38.3431 6 37 7.34315 37 9V15C37 16.6569 38.3431 18 40 18H46C47.6569 18 49 16.6569 49 15V9C49 7.34315 47.6569 6 46 6H40Z" fill="#7828C8"/>
</svg>
